<svg width="20" height="20" viewBox="0 0 20 20" fill="none" xmlns="http://www.w3.org/2000/svg">
<path d="M14.166 7.49984C14.166 10.7248 11.366 13.3332 7.91602 13.3332L7.14102 14.2665L6.68269 14.8165C6.29102 15.2832 5.54101 15.1832 5.28268 14.6248L4.16602 12.1665C2.64935 11.0998 1.66602 9.40817 1.66602 7.49984C1.66602 4.27484 4.46602 1.6665 7.91602 1.6665C10.4327 1.6665 12.6077 3.05818 13.5827 5.05818C13.9577 5.79984 14.166 6.62484 14.166 7.49984Z" stroke="#1CCA81" stroke-width="1.5" stroke-linecap="round" stroke-linejoin="round"/>
<path d="M18.3342 10.7164C18.3342 12.6248 17.3509 14.3165 15.8342 15.3831L14.7176 17.8414C14.4592 18.3997 13.7092 18.5081 13.3176 18.0331L12.0842 16.5498C10.0676 16.5498 8.26758 15.6581 7.14258 14.2664L7.91757 13.3331C11.3676 13.3331 14.1676 10.7248 14.1676 7.49977C14.1676 6.62477 13.9592 5.79977 13.5842 5.05811C16.3092 5.68311 18.3342 7.98309 18.3342 10.7164Z" stroke="#1CCA81" stroke-width="1.5" stroke-linecap="round" stroke-linejoin="round"/>
<path d="M5.83398 7.5H10.0007" stroke="#1CCA81" stroke-width="1.5" stroke-linecap="round" stroke-linejoin="round"/>
</svg>
