<svg width="40" height="40" viewBox="0 0 40 40" fill="none" xmlns="http://www.w3.org/2000/svg">
<rect width="40" height="40" rx="4" fill="#1976D2"/>
<path fill-rule="evenodd" clip-rule="evenodd" d="M17.921 27.7984C17.921 27.9097 18.0113 28 18.1226 28H20.9954C21.1066 28 21.1966 27.9097 21.1966 27.7984V19.9369H23.2795C23.3838 19.9369 23.471 19.8566 23.4801 19.7525L23.6804 17.3837C23.6901 17.2663 23.5976 17.1653 23.4795 17.1653H21.1966V15.485C21.1966 15.0909 21.516 14.7716 21.9098 14.7716H23.5148C23.6263 14.7716 23.7163 14.6812 23.7163 14.57V12.2016C23.7163 12.0903 23.6263 12 23.5148 12H20.8029C19.2113 12 17.921 13.29 17.921 14.8816V17.1653H16.4848C16.3735 17.1653 16.2832 17.2556 16.2832 17.3669V19.7353C16.2832 19.8469 16.3735 19.9369 16.4848 19.9369H17.921V27.7984Z" fill="white"/>
</svg>
