<svg width="40" height="40" viewBox="0 0 40 40" fill="none" xmlns="http://www.w3.org/2000/svg">
<rect width="40" height="40" rx="4" fill="#03A9F4"/>
<path d="M17.2125 26.0068C22.8732 26.0068 25.9688 21.3171 25.9688 17.2505C25.9688 17.1173 25.966 16.9847 25.96 16.8528C26.5609 16.4183 27.0831 15.8762 27.4952 15.2591C26.9438 15.5043 26.3503 15.6691 25.7279 15.7437C26.3632 15.3626 26.851 14.7599 27.0811 14.0415C26.4865 14.394 25.828 14.6501 25.1269 14.7884C24.5654 14.1902 23.7657 13.8162 22.8804 13.8162C21.181 13.8162 19.8027 15.1943 19.8027 16.8932C19.8027 17.1348 19.8298 17.3697 19.8825 17.595C17.3248 17.4663 15.0566 16.2417 13.5389 14.3796C13.2747 14.8343 13.1223 15.3627 13.1223 15.9265C13.1223 16.994 13.6656 17.9368 14.4917 18.4881C13.9869 18.4726 13.5126 18.3339 13.098 18.1032C13.0975 18.1162 13.0975 18.1287 13.0975 18.1425C13.0975 19.633 14.1583 20.8774 15.5667 21.1594C15.308 21.2297 15.0358 21.2676 14.7551 21.2676C14.5572 21.2676 14.3642 21.2482 14.1767 21.2121C14.5684 22.4349 15.7046 23.3247 17.0516 23.3497C15.9983 24.1752 14.6714 24.667 13.2292 24.667C12.9812 24.667 12.736 24.6528 12.4951 24.6244C13.8571 25.4974 15.4745 26.0068 17.2126 26.0068" fill="white"/>
</svg>
