<svg width="40" height="40" viewBox="0 0 40 40" fill="none" xmlns="http://www.w3.org/2000/svg">
<rect width="40" height="40" rx="4" fill="url(#paint0_linear_1_4232)"/>
<g clip-path="url(#clip0_1_4232)">
<path d="M27.9836 16.704C27.9461 15.8539 27.8086 15.2694 27.6117 14.763C27.4085 14.2254 27.0959 13.7441 26.6864 13.344C26.2863 12.9377 25.8019 12.6219 25.2705 12.422C24.7611 12.225 24.1797 12.0875 23.3296 12.0501C22.4731 12.0094 22.2012 12 20.0289 12C17.8566 12 17.5847 12.0094 16.7314 12.0469C15.8812 12.0844 15.2968 12.222 14.7905 12.4188C14.2528 12.6219 13.7715 12.9345 13.3714 13.344C12.965 13.7441 12.6494 14.2286 12.4493 14.7599C12.2524 15.2694 12.1149 15.8507 12.0774 16.7009C12.0367 17.5574 12.0273 17.8293 12.0273 20.0016C12.0273 22.1739 12.0367 22.4458 12.0742 23.2991C12.1117 24.1492 12.2493 24.7337 12.4462 25.2401C12.6494 25.7777 12.965 26.259 13.3714 26.6591C13.7715 27.0654 14.2559 27.3812 14.7873 27.5812C15.2968 27.7781 15.8781 27.9156 16.7283 27.9531C17.5815 27.9907 17.8535 28 20.0258 28C22.1981 28 22.47 27.9907 23.3234 27.9531C24.1735 27.9156 24.758 27.7781 25.2643 27.5812C26.3396 27.1654 27.1897 26.3153 27.6054 25.2401C27.8023 24.7306 27.9399 24.1492 27.9773 23.2991C28.0148 22.4458 28.0242 22.1739 28.0242 20.0016C28.0242 17.8293 28.021 17.5574 27.9836 16.704ZM26.5427 23.2366C26.5083 24.018 26.3771 24.4399 26.2677 24.7212C25.9988 25.4183 25.4456 25.9715 24.7486 26.2403C24.4673 26.3497 24.0422 26.481 23.2639 26.5153C22.42 26.5529 22.1669 26.5622 20.0321 26.5622C17.8973 26.5622 17.641 26.5529 16.8001 26.5153C16.0187 26.481 15.5968 26.3497 15.3155 26.2403C14.9686 26.1121 14.6529 25.909 14.3966 25.6433C14.1309 25.3838 13.9277 25.0713 13.7995 24.7244C13.6901 24.4431 13.5589 24.018 13.5246 23.2397C13.487 22.3958 13.4777 22.1426 13.4777 20.0078C13.4777 17.873 13.487 17.6167 13.5246 16.776C13.5589 15.9946 13.6901 15.5726 13.7995 15.2913C13.9277 14.9443 14.1309 14.6287 14.3998 14.3723C14.6591 14.1066 14.9716 13.9034 15.3186 13.7754C15.5999 13.666 16.0251 13.5347 16.8033 13.5003C17.6472 13.4628 17.9004 13.4534 20.0351 13.4534C22.1731 13.4534 22.4262 13.4628 23.2671 13.5003C24.0485 13.5347 24.4704 13.666 24.7517 13.7754C25.0986 13.9034 25.4143 14.1066 25.6706 14.3723C25.9363 14.6317 26.1395 14.9443 26.2677 15.2913C26.3771 15.5726 26.5083 15.9976 26.5427 16.776C26.5802 17.6199 26.5896 17.873 26.5896 20.0078C26.5896 22.1426 26.5802 22.3927 26.5427 23.2366Z" fill="white"/>
<path d="M20.0291 15.8914C17.76 15.8914 15.9189 17.7323 15.9189 20.0015C15.9189 22.2708 17.76 24.1117 20.0291 24.1117C22.2984 24.1117 24.1393 22.2708 24.1393 20.0015C24.1393 17.7323 22.2984 15.8914 20.0291 15.8914ZM20.0291 22.6677C18.557 22.6677 17.363 21.4737 17.363 20.0015C17.363 18.5293 18.557 17.3354 20.0291 17.3354C21.5013 17.3354 22.6953 18.5293 22.6953 20.0015C22.6953 21.4737 21.5013 22.6677 20.0291 22.6677Z" fill="white"/>
<path d="M25.262 15.7291C25.262 16.259 24.8323 16.6886 24.3023 16.6886C23.7724 16.6886 23.3428 16.259 23.3428 15.7291C23.3428 15.1991 23.7724 14.7695 24.3023 14.7695C24.8323 14.7695 25.262 15.1991 25.262 15.7291Z" fill="white"/>
</g>
<defs>
<linearGradient id="paint0_linear_1_4232" x1="5.85929" y1="34.1445" x2="34.1407" y2="5.85929" gradientUnits="userSpaceOnUse">
<stop stop-color="#FFC107"/>
<stop offset="0.507" stop-color="#F44336"/>
<stop offset="0.99" stop-color="#9C27B0"/>
</linearGradient>
<clipPath id="clip0_1_4232">
<rect width="16" height="16" fill="white" transform="translate(12 12)"/>
</clipPath>
</defs>
</svg>
